<svg xmlns="http://www.w3.org/2000/svg" width="960" height="600" viewBox="0 0 960 600">
<rect width="100%" height="100%" fill="#0b1020"/>
<text x="92" y="36" fill="#f8fafc" font-family="system-ui,sans-serif" font-size="24" font-weight="700">p95 speedup over calibrated IVF postfilter</text>
<line x1="92" y1="524.0" x2="730" y2="524.0" stroke="#26324d" stroke-width="1"/>
<text x="80" y="529.0" text-anchor="end" fill="#94a3b8" font-family="ui-monospace,monospace" font-size="13">12.25</text>
<line x1="92" y1="433.6" x2="730" y2="433.6" stroke="#26324d" stroke-width="1"/>
<text x="80" y="438.6" text-anchor="end" fill="#94a3b8" font-family="ui-monospace,monospace" font-size="13">64.66</text>
<line x1="92" y1="343.2" x2="730" y2="343.2" stroke="#26324d" stroke-width="1"/>
<text x="80" y="348.2" text-anchor="end" fill="#94a3b8" font-family="ui-monospace,monospace" font-size="13">117.1</text>
<line x1="92" y1="252.8" x2="730" y2="252.8" stroke="#26324d" stroke-width="1"/>
<text x="80" y="257.8" text-anchor="end" fill="#94a3b8" font-family="ui-monospace,monospace" font-size="13">169.5</text>
<line x1="92" y1="162.39999999999998" x2="730" y2="162.39999999999998" stroke="#26324d" stroke-width="1"/>
<text x="80" y="167.39999999999998" text-anchor="end" fill="#94a3b8" font-family="ui-monospace,monospace" font-size="13">221.9</text>
<line x1="92" y1="72.0" x2="730" y2="72.0" stroke="#26324d" stroke-width="1"/>
<text x="80" y="77.0" text-anchor="end" fill="#94a3b8" font-family="ui-monospace,monospace" font-size="13">274.3</text>
<line x1="92.0" y1="72" x2="92.0" y2="524" stroke="#18233a" stroke-width="1"/>
<text x="92.0" y="554" text-anchor="middle" fill="#cbd5e1" font-family="system-ui,sans-serif" font-size="14">1.0%</text>
<line x1="411.0" y1="72" x2="411.0" y2="524" stroke="#18233a" stroke-width="1"/>
<text x="411.0" y="554" text-anchor="middle" fill="#cbd5e1" font-family="system-ui,sans-serif" font-size="14">5.0%</text>
<line x1="730.0" y1="72" x2="730.0" y2="524" stroke="#18233a" stroke-width="1"/>
<text x="730.0" y="554" text-anchor="middle" fill="#cbd5e1" font-family="system-ui,sans-serif" font-size="14">10.0%</text>
<line x1="92" y1="524" x2="730" y2="524" stroke="#64748b" stroke-width="2"/>
<line x1="92" y1="72" x2="92" y2="524" stroke="#64748b" stroke-width="2"/>
<polyline points="92.0,103.17241379310349 411.0,432.920714515016 730.0,492.82758620689657" fill="none" stroke="#22c55e" stroke-width="3" stroke-linejoin="round" stroke-linecap="round"/>
<circle cx="92.0" cy="103.17241379310349" r="5" fill="#22c55e" stroke="#0b1020" stroke-width="2"/>
<circle cx="411.0" cy="432.920714515016" r="5" fill="#22c55e" stroke="#0b1020" stroke-width="2"/>
<circle cx="730.0" cy="492.82758620689657" r="5" fill="#22c55e" stroke="#0b1020" stroke-width="2"/>
<line x1="758" y1="102" x2="786" y2="102" stroke="#22c55e" stroke-width="4"/>
<text x="796" y="107" fill="#e2e8f0" font-family="system-ui,sans-serif" font-size="14">Filter-aware vs postfilter</text>
<text x="411.0" y="580" text-anchor="middle" fill="#cbd5e1" font-family="system-ui,sans-serif" font-size="15">Filter selectivity</text>
<text x="24" y="298.0" text-anchor="middle" fill="#cbd5e1" font-family="system-ui,sans-serif" font-size="15" transform="rotate(-90 24 298.0)">Speedup (x)</text>
</svg>
