<svg xmlns="http://www.w3.org/2000/svg" width="960" height="600" viewBox="0 0 960 600">
<rect width="100%" height="100%" fill="#0b1020"/>
<text x="92" y="36" fill="#f8fafc" font-family="system-ui,sans-serif" font-size="24" font-weight="700">p95 latency at Recall@10 &gt;= 0.95</text>
<line x1="92" y1="524.0" x2="730" y2="524.0" stroke="#26324d" stroke-width="1"/>
<text x="80" y="529.0" text-anchor="end" fill="#94a3b8" font-family="ui-monospace,monospace" font-size="13">0.071</text>
<line x1="92" y1="433.6" x2="730" y2="433.6" stroke="#26324d" stroke-width="1"/>
<text x="80" y="438.6" text-anchor="end" fill="#94a3b8" font-family="ui-monospace,monospace" font-size="13">0.2632</text>
<line x1="92" y1="343.2" x2="730" y2="343.2" stroke="#26324d" stroke-width="1"/>
<text x="80" y="348.2" text-anchor="end" fill="#94a3b8" font-family="ui-monospace,monospace" font-size="13">0.9761</text>
<line x1="92" y1="252.8" x2="730" y2="252.8" stroke="#26324d" stroke-width="1"/>
<text x="80" y="257.8" text-anchor="end" fill="#94a3b8" font-family="ui-monospace,monospace" font-size="13">3.62</text>
<line x1="92" y1="162.39999999999998" x2="730" y2="162.39999999999998" stroke="#26324d" stroke-width="1"/>
<text x="80" y="167.39999999999998" text-anchor="end" fill="#94a3b8" font-family="ui-monospace,monospace" font-size="13">13.42</text>
<line x1="92" y1="72.0" x2="730" y2="72.0" stroke="#26324d" stroke-width="1"/>
<text x="80" y="77.0" text-anchor="end" fill="#94a3b8" font-family="ui-monospace,monospace" font-size="13">49.77</text>
<line x1="92.0" y1="72" x2="92.0" y2="524" stroke="#18233a" stroke-width="1"/>
<text x="92.0" y="554" text-anchor="middle" fill="#cbd5e1" font-family="system-ui,sans-serif" font-size="14">1.0%</text>
<line x1="411.0" y1="72" x2="411.0" y2="524" stroke="#18233a" stroke-width="1"/>
<text x="411.0" y="554" text-anchor="middle" fill="#cbd5e1" font-family="system-ui,sans-serif" font-size="14">5.0%</text>
<line x1="730.0" y1="72" x2="730.0" y2="524" stroke="#18233a" stroke-width="1"/>
<text x="730.0" y="554" text-anchor="middle" fill="#cbd5e1" font-family="system-ui,sans-serif" font-size="14">10.0%</text>
<line x1="92" y1="524" x2="730" y2="524" stroke="#64748b" stroke-width="2"/>
<line x1="92" y1="72" x2="92" y2="524" stroke="#64748b" stroke-width="2"/>
<polyline points="92.0,487.83359045479074 411.0,396.7788551646422 730.0,345.53816992006045" fill="none" stroke="#94a3b8" stroke-width="3" stroke-linejoin="round" stroke-linecap="round"/>
<circle cx="92.0" cy="487.83359045479074" r="5" fill="#94a3b8" stroke="#0b1020" stroke-width="2"/>
<circle cx="411.0" cy="396.7788551646422" r="5" fill="#94a3b8" stroke="#0b1020" stroke-width="2"/>
<circle cx="730.0" cy="345.53816992006045" r="5" fill="#94a3b8" stroke="#0b1020" stroke-width="2"/>
<polyline points="92.0,492.82758620689657 411.0,397.44787971015904 730.0,345.5778761163698" fill="none" stroke="#60a5fa" stroke-width="3" stroke-linejoin="round" stroke-linecap="round"/>
<circle cx="92.0" cy="492.82758620689657" r="5" fill="#60a5fa" stroke="#0b1020" stroke-width="2"/>
<circle cx="411.0" cy="397.44787971015904" r="5" fill="#60a5fa" stroke="#0b1020" stroke-width="2"/>
<circle cx="730.0" cy="345.5778761163698" r="5" fill="#60a5fa" stroke="#0b1020" stroke-width="2"/>
<polyline points="92.0,104.06885418254808 411.0,103.17241379310349 730.0,118.31338433576451" fill="none" stroke="#f97316" stroke-width="3" stroke-linejoin="round" stroke-linecap="round"/>
<circle cx="92.0" cy="104.06885418254808" r="5" fill="#f97316" stroke="#0b1020" stroke-width="2"/>
<circle cx="411.0" cy="103.17241379310349" r="5" fill="#f97316" stroke="#0b1020" stroke-width="2"/>
<circle cx="730.0" cy="118.31338433576451" r="5" fill="#f97316" stroke="#0b1020" stroke-width="2"/>
<polyline points="92.0,481.80133583033705 411.0,400.17741975826993 730.0,353.0140031041201" fill="none" stroke="#22c55e" stroke-width="3" stroke-linejoin="round" stroke-linecap="round"/>
<circle cx="92.0" cy="481.80133583033705" r="5" fill="#22c55e" stroke="#0b1020" stroke-width="2"/>
<circle cx="411.0" cy="400.17741975826993" r="5" fill="#22c55e" stroke="#0b1020" stroke-width="2"/>
<circle cx="730.0" cy="353.0140031041201" r="5" fill="#22c55e" stroke="#0b1020" stroke-width="2"/>
<polyline points="92.0,486.6219439363451 411.0,400.5823071522135 730.0,353.6585056898798" fill="none" stroke="#a78bfa" stroke-width="3" stroke-linejoin="round" stroke-linecap="round"/>
<circle cx="92.0" cy="486.6219439363451" r="5" fill="#a78bfa" stroke="#0b1020" stroke-width="2"/>
<circle cx="411.0" cy="400.5823071522135" r="5" fill="#a78bfa" stroke="#0b1020" stroke-width="2"/>
<circle cx="730.0" cy="353.6585056898798" r="5" fill="#a78bfa" stroke="#0b1020" stroke-width="2"/>
<polyline points="92.0,483.5807717207846 411.0,385.29850787007683 730.0,342.8002001152895" fill="none" stroke="#facc15" stroke-width="3" stroke-linejoin="round" stroke-linecap="round"/>
<circle cx="92.0" cy="483.5807717207846" r="5" fill="#facc15" stroke="#0b1020" stroke-width="2"/>
<circle cx="411.0" cy="385.29850787007683" r="5" fill="#facc15" stroke="#0b1020" stroke-width="2"/>
<circle cx="730.0" cy="342.8002001152895" r="5" fill="#facc15" stroke="#0b1020" stroke-width="2"/>
<line x1="758" y1="102" x2="786" y2="102" stroke="#94a3b8" stroke-width="4"/>
<text x="796" y="107" fill="#e2e8f0" font-family="system-ui,sans-serif" font-size="14">Exact filtered</text>
<line x1="758" y1="132" x2="786" y2="132" stroke="#60a5fa" stroke-width="4"/>
<text x="796" y="137" fill="#e2e8f0" font-family="system-ui,sans-serif" font-size="14">IVF prefilter</text>
<line x1="758" y1="162" x2="786" y2="162" stroke="#f97316" stroke-width="4"/>
<text x="796" y="167" fill="#e2e8f0" font-family="system-ui,sans-serif" font-size="14">IVF postfilter</text>
<line x1="758" y1="192" x2="786" y2="192" stroke="#22c55e" stroke-width="4"/>
<text x="796" y="197" fill="#e2e8f0" font-family="system-ui,sans-serif" font-size="14">Filter-aware IVF</text>
<line x1="758" y1="222" x2="786" y2="222" stroke="#a78bfa" stroke-width="4"/>
<text x="796" y="227" fill="#e2e8f0" font-family="system-ui,sans-serif" font-size="14">Bounded filter-aware</text>
<line x1="758" y1="252" x2="786" y2="252" stroke="#facc15" stroke-width="4"/>
<text x="796" y="257" fill="#e2e8f0" font-family="system-ui,sans-serif" font-size="14">AutoPlanner</text>
<text x="411.0" y="580" text-anchor="middle" fill="#cbd5e1" font-family="system-ui,sans-serif" font-size="15">Filter selectivity</text>
<text x="24" y="298.0" text-anchor="middle" fill="#cbd5e1" font-family="system-ui,sans-serif" font-size="15" transform="rotate(-90 24 298.0)">p95 latency (ms, log scale)</text>
</svg>
